Coordinates
version=1
nRows=14
nColumns=42
inDegrees=yes

Units are S.I. units (second, meters, Newtons, ...)
If the header above contains a line with 'inDegrees', this indicates whether rotational values are in degrees (yes) or radians (no).

endheader
time	pelvis_tilt	pelvis_list	pelvis_rotation	pelvis_tx	pelvis_ty	pelvis_tz	hip_flexion_r	hip_adduction_r	hip_rotation_r	knee_angle_r	knee_adduction_r	knee_angle_r_beta	ankle_angle_r	subtalar_angle_r	mtp_angle_r	hip_flexion_l	hip_adduction_l	hip_rotation_l	knee_angle_l	knee_adduction_l	knee_angle_l_beta	ankle_angle_l	subtalar_angle_l	mtp_angle_l	lumbar_extension	lumbar_bending	lumbar_rotation	arm_flex_r	arm_add_r	arm_rot_r	elbow_flex_r	pro_sup_r	wrist_flex_r	wrist_dev_r	arm_flex_l	arm_add_l	arm_rot_l	elbow_flex_l	pro_sup_l	wrist_flex_l	wrist_dev_l
      0.50000000	      8.21797257	      6.10635718	     -4.53733294	     -1.61083164	      0.97629895	      0.34358769	    -22.59439486	     -7.42892046	    -17.78384282	     16.58605577	      1.55295498	      0.28948128	     14.60527324	      6.66712108	     -9.57945208	      9.75722464	      4.28234847	    -13.37497500	      5.69173947	     -0.98397812	      0.09933959	     -7.36064671	      9.75475419	     -9.57945208	    -21.82649190	    -12.01338985	      6.94891961	     24.26397939	    -16.26634476	     25.64776233	     41.13507932	     90.00000001	      0.00000000	      0.00000000	    -14.97031982	    -11.87018364	      4.66824777	     39.59644005	     90.00000001	      0.00000000	      0.00000000
      0.51000000	      8.02321783	      6.29913776	     -4.54358666	     -1.60192402	      0.97720406	      0.34177104	    -22.46887413	     -8.00381630	    -17.95088937	     17.45457412	      1.60425930	      0.30463979	     13.34547278	      6.64066416	     -9.55793269	      9.27906105	      4.65799451	    -13.69644905	      5.30996639	     -0.98782688	      0.09267640	     -7.66671558	     10.02074887	     -9.55793269	    -21.56599036	    -12.29912613	      6.68712774	     23.70454692	    -16.09294330	     25.65929139	     40.98730336	     90.00000001	      0.00000000	      0.00000000	    -14.66944084	    -11.99834118	      4.71089690	     39.43478700	     90.00000001	      0.00000000	      0.00000000
      0.52000000	      7.84090088	      6.31919842	     -4.32763378	     -1.59294129	      0.97830010	      0.33973426	    -22.46650562	     -8.21092047	    -17.81720713	     18.08978289	      1.61217249	      0.31572627	     12.73324822	      6.68138384	     -9.54771202	      8.88461571	      4.84594316	    -13.84752727	      5.21569464	     -0.95502856	      0.09103104	     -7.71355122	     10.11034487	     -9.54771202	    -21.36963857	    -12.34148058	      6.30520332	     23.04703680	    -16.00729993	     25.67650490	     40.88180393	     90.00000001	      0.00000000	      0.00000000	    -14.37684765	    -12.18492046	      4.70813579	     39.40565535	     90.00000001	      0.00000000	      0.00000000
      0.53000000	      7.82209332	      6.73000797	     -4.42631631	     -1.58395381	      0.97974226	      0.33764320	    -22.15502227	     -9.32101804	    -18.56800040	     19.73187418	      1.76902172	      0.34438617	     10.66470519	      6.39841354	     -9.52304340	      8.11215796	      5.57938022	    -13.99420550	      4.59374817	     -1.08791944	      0.08017603	     -7.90770899	     10.60025351	     -9.52304340	    -21.32012248	    -12.84621532	      6.11962176	     22.34820743	    -15.89074182	     25.49409272	     40.81253058	     90.00000001	      0.00000000	      0.00000000	    -13.85423543	    -12.32996573	      4.88577519	     39.10192142	     90.00000001	      0.00000000	      0.00000000
      0.54000000	      7.77264764	      6.81815554	     -4.24335371	     -1.57512202	      0.98124426	      0.33544292	    -21.93560554	     -9.86288838	    -18.68443477	     21.13214856	      1.97526722	      0.36882557	      9.37786828	      6.34487831	     -9.50499197	      7.52397742	      5.86748627	    -13.94842639	      4.40271617	     -1.02897015	      0.07684189	     -7.82485935	     10.82202980	     -9.50499197	    -21.33275455	    -12.95206200	      5.66768731	     21.71989557	    -15.75683492	     25.35879613	     40.77247126	     90.00000001	      0.00000000	      0.00000000	    -13.42193644	    -12.51677638	      4.99274104	     38.99180137	     90.00000001	      0.00000000	      0.00000000
      0.55000000	      7.58122373	      7.25514043	     -4.07764000	     -1.56610424	      0.98252434	      0.33287876	    -21.27216132	    -10.93148351	    -19.67610602	     23.13605787	      1.95213161	      0.40380039	      7.77190111	      6.03437025	     -9.45372951	      7.02549465	      6.73021021	    -13.67529244	      3.96013989	     -1.31344639	      0.06911748	     -7.87068051	     11.05408718	     -9.45372951	    -21.14588917	    -13.40096242	      5.36290646	     20.78734459	    -15.63877870	     24.89692664	     40.69415271	     90.00000001	      0.00000000	      0.00000000	    -12.85531692	    -12.82123958	      5.35314432	     38.80025974	     90.00000001	      0.00000000	      0.00000000
      0.56000000	      7.68261142	      7.16553204	     -3.95351220	     -1.55743153	      0.98438959	      0.33085332	    -20.90126691	    -11.37320407	    -19.87133043	     24.99575840	      2.04008528	      0.43625828	      6.12475508	      5.88408486	     -9.43272467	      6.26739591	      6.77341547	    -13.52247057	      3.86222610	     -1.15280168	      0.06740856	     -7.41495439	     11.13938193	     -9.43272467	    -21.35798375	    -13.31972439	      5.05306826	     20.13778330	    -15.56039363	     24.79382769	     40.53318108	     90.00000001	      0.00000000	      0.00000000	    -12.28535638	    -13.01433555	      5.42963628	     38.69789638	     90.00000001	      0.00000000	      0.00000000
      0.57000000	      7.42778760	      7.45254083	     -3.72992739	     -1.54881506	      0.98560165	      0.32835377	    -19.83271523	    -12.30612547	    -20.75145714	     27.52972612	      1.85042206	      0.48048436	      4.26478844	      5.30119139	     -9.34047199	      5.86501992	      7.40829590	    -12.96731451	      3.53310831	     -1.31845484	      0.06166437	     -7.18757773	     10.87261668	     -9.34047199	    -21.17194129	    -13.59488497	      4.72574998	     19.24639322	    -15.41056604	     24.29601148	     40.40760864	     90.00000001	      0.00000000	      0.00000000	    -11.60273935	    -13.32041743	      5.87194672	     38.47909308	     90.00000001	      0.00000000	      0.00000000
      0.58000000	      7.44183975	      7.44820497	     -3.52888512	     -1.54040453	      0.98727670	      0.32614584	    -19.03263375	    -12.88227004	    -21.19514570	     29.92846230	      1.71966462	      0.52235021	      2.20422994	      4.58783821	     -9.29693736	      5.18485754	      7.61116830	    -12.66278707	      3.33170086	     -1.28234250	      0.05814915	     -6.75101370	     11.01387748	     -9.29693736	    -21.34518172	    -13.56688005	      4.39117625	     18.51274912	    -15.34644493	     24.16356165	     40.28060957	     90.00000001	      0.00000000	      0.00000000	    -10.85925172	    -13.54059969	      6.00596881	     38.30500829	     90.00000001	      0.00000000	      0.00000000
      0.59000000	      7.53498488	      7.40463020	     -3.43440192	     -1.53193023	      0.98898050	      0.32417911	    -18.16253473	    -13.43935882	    -21.58363076	     32.48189259	      1.44234963	      0.56691597	      0.14784531	      3.71703003	     -9.26691888	      4.38147648	      7.74132379	    -12.44820568	      3.08995802	     -1.20742491	      0.05392994	     -6.17006699	     11.20432310	     -9.26691888	    -21.56035752	    -13.53570972	      4.13616025	     17.76931557	    -15.26437364	     24.05313187	     40.08627198	     90.00000001	      0.00000000	      0.00000000	    -10.12448336	    -13.74574895	      6.15452740	     38.12043803	     90.00000001	      0.00000000	      0.00000000
      0.60000000	      7.52199623	      7.37273654	     -3.23783378	     -1.52379792	      0.99041315	      0.32193252	    -17.03239745	    -14.04824740	    -21.87817054	     35.28080038	      1.24949743	      0.61576613	     -1.89612414	      2.51450988	     -9.23297040	      3.75152049	      7.92191298	    -12.21220088	      2.91187034	     -1.22133186	      0.05082172	     -5.71746641	     11.42644015	     -9.23297040	    -21.72981011	    -13.44729354	      3.80976473	     17.04486590	    -15.18848162	     23.87666974	     39.91321132	     90.00000001	      0.00000000	      0.00000000	     -9.31388430	    -14.00268883	      6.39462639	     37.93383904	     90.00000001	      0.00000000	      0.00000000
      0.61000000	      7.82069548	      7.06309657	     -2.96167237	     -1.51587428	      0.99232199	      0.31977955	    -16.33402365	    -14.28194987	    -21.77341695	     37.81428992	      1.30555064	      0.65998386	     -3.21566757	      2.03755482	     -9.21459643	      2.83862563	      7.69967021	    -12.07505573	      2.91879246	     -1.03176976	      0.05094254	     -5.31495531	     11.62471072	     -9.21459643	    -22.31334468	    -13.03972818	      3.36554766	     16.48008595	    -15.12575932	     23.79771368	     39.70018418	     90.00000001	      0.00000000	      0.00000000	     -8.49583825	    -14.18786838	      6.49962562	     37.92331540	     90.00000001	      0.00000000	      0.00000000
      0.62000000	      7.70526387	      7.23144503	     -3.01761793	     -1.50794324	      0.99323424	      0.31806437	    -14.64464469	    -15.11203362	    -22.18600274	     40.98138434	      0.54865535	      0.71526009	     -5.64854294	     -0.00945690	     -9.18610224	      2.19559605	      8.09518660	    -11.90863754	      2.40079813	     -1.07512328	      0.04190183	     -4.70743754	     12.08543370	     -9.18610224	    -22.28956565	    -13.26579555	      3.32080957	     15.67506548	    -15.04907915	     23.69660349	     39.42517109	     90.00000001	      0.00000000	      0.00000000	     -7.52888007	    -14.51745945	      6.85669403	     37.59329526	     90.00000001	      0.00000000	      0.00000000
      0.63000000	      7.51209414	      7.20599456	     -2.83040248	     -1.50065274	      0.99404863	      0.31583259	    -13.01079351	    -15.72693244	    -21.09731623	     44.01460303	      1.15614465	      0.76819974	     -7.68076834	     -3.81050795	     -9.08100976	      1.92544220	      8.27308041	    -11.90597936	      2.40703466	     -1.16699751	      0.04201068	     -4.39245357	     12.29790581	     -9.08100976	    -22.33077952	    -13.15909212	      3.03485570	     14.98658450	    -14.91296163	     23.27238121	     39.15640552	     90.00000001	      0.00000000	      0.00000000	     -6.54531333	    -14.88080663	      7.67138583	     37.42417704	     90.00000001	      0.00000000	      0.00000000
